<svg xmlns="http://www.w3.org/2000/svg" xmlns:v="https://svgstorm.com"
viewBox = "0 0 500 500"
width="500"
height="500">
<g fill="#000000" fill-opacity="0.00" stroke="None"><path d="
M 0.00 500.00 
L 500.00 500.00
L 500.00 0.00
L 0.00 0.00
L 0.00 500.00
M 270.00 72.00 
C 325.33 126.50 380.55 181.71 435.00 237.00
C 435.20 237.40 435.00 238.00 435.00 238.00
C 443.55 245.36 442.38 260.06 435.00 268.00
C 408.83 295.00 381.95 321.88 355.00 348.00
C 329.50 374.33 303.29 400.55 277.00 426.00
C 269.52 434.03 255.74 435.83 247.00 429.00
C 190.33 373.16 133.79 316.62 78.00 260.00
C 73.25 252.36 73.10 242.59 78.00 235.00
C 117.83 194.33 158.38 153.79 199.00 114.00
C 213.17 99.00 228.05 84.12 243.00 70.00
C 251.27 65.35 262.61 65.84 270.00 72.00 Z"/>
</g>
<g fill="#10ED9D" fill-opacity="1.00" stroke="None"><path d="
M 243.00 70.00 
C 228.83 85.00 213.95 99.88 199.00 114.00
C 159.17 154.67 118.62 195.21 78.00 235.00
C 73.10 242.59 73.25 252.36 78.00 260.00
C 134.67 315.83 191.21 372.38 247.00 429.00
C 255.74 435.83 269.52 434.03 277.00 426.00
C 302.50 399.67 328.71 373.45 355.00 348.00
C 381.17 321.00 408.05 294.12 435.00 268.00
C 442.38 260.06 443.55 245.36 435.00 238.00
C 379.67 183.50 324.45 128.29 270.00 73.00
C 269.80 72.60 270.00 72.00 270.00 72.00
C 262.61 65.84 251.27 65.35 243.00 70.00 Z"/>
</g>
<g fill="#A4FEE5" fill-opacity="0.25" stroke="None"><path d="
M 199.00 114.00 
C 213.95 99.88 228.83 85.00 243.00 70.00
C 228.05 84.12 213.17 99.00 199.00 114.00 Z"/>
</g>
<g fill="#C2FFFF" fill-opacity="0.02" stroke="None"><path d="
M 270.00 73.00 
C 325.50 127.00 379.55 183.05 435.00 237.00
C 380.55 181.71 325.33 126.50 270.00 72.00
C 270.00 72.00 269.80 72.60 270.00 73.00 Z"/>
</g>
<g fill="#63E4B7" fill-opacity="0.81" stroke="None"><path d="
M 435.00 238.00 
C 435.00 238.00 435.20 237.40 435.00 237.00
C 379.55 183.05 325.50 127.00 270.00 73.00
C 324.45 128.29 379.67 183.50 435.00 238.00 Z"/>
</g>
<g fill="#95FDDB" fill-opacity="0.37" stroke="None"><path d="
M 78.00 235.00 
C 118.62 195.21 159.17 154.67 199.00 114.00
C 158.38 153.79 117.83 194.33 78.00 235.00 Z"/>
</g>
<g fill="#0C9061" fill-opacity="1.00" stroke="None"><path d="
M 264.00 119.00 
C 241.00 118.13 229.84 143.53 213.25 156.25 C 185.49 186.20 152.11 212.94 127.98 244.98 C 121.53 268.43 149.67 279.84 161.75 296.25 C 176.25 310.75 190.75 325.25 205.25 339.75 C 220.81 352.99 232.78 372.57 251.33 380.67 C 273.93 382.24 285.24 356.18 301.75 343.75 C 329.55 313.82 362.77 287.04 387.07 255.07 C 393.81 231.42 366.13 219.54 353.75 203.25 C 339.25 188.75 324.75 174.25 310.25 159.75 C 294.68 146.57 282.53 126.51 264.00 119.00 Z"/>
</g>
<g fill="#10E69B" fill-opacity="1.00" stroke="None"><path d="
M 256.00 203.00 
C 265.10 193.43 246.02 190.03 240.25 195.25 C 231.96 200.89 236.43 214.22 245.77 215.23 C 258.17 222.69 242.08 226.41 236.00 220.00
C 235.92 222.89 232.51 224.16 232.00 227.00
C 237.33 230.13 243.99 233.30 250.33 231.33 C 266.21 229.57 261.42 208.67 247.70 207.30 C 238.62 202.50 251.84 198.59 256.00 203.00 Z"/>
</g>
<g fill="#12EB9D" fill-opacity="1.00" stroke="None"><path d="
M 217.00 194.00 
C 214.33 194.00 211.67 194.00 209.00 194.00
C 209.00 206.33 209.00 218.67 209.00 231.00
C 216.10 229.13 232.64 236.22 230.00 224.00
C 225.67 224.00 221.33 224.00 217.00 224.00
C 217.00 214.00 217.00 204.00 217.00 194.00 Z"/>
</g>
<g fill="#12EA9D" fill-opacity="1.00" stroke="None"><path d="
M 273.00 194.00 
C 270.33 194.00 267.67 194.00 265.00 194.00
C 265.00 201.67 265.00 209.33 265.00 217.00 C 265.06 223.70 262.60 234.30 273.00 231.00
C 273.00 218.67 273.00 206.33 273.00 194.00 Z"/>
</g>
<g fill="#10EA9C" fill-opacity="1.00" stroke="None"><path d="
M 279.00 231.00 
C 291.85 233.61 309.83 227.70 308.00 212.00 C 309.04 196.70 291.57 191.53 279.00 194.00
C 279.00 206.33 279.00 218.67 279.00 231.00 Z"/>
</g>
<g fill="#0A9663" fill-opacity="1.00" stroke="None"><path d="
M 287.00 223.00 
C 297.40 225.73 303.31 210.41 295.75 204.25 C 283.39 193.89 287.52 215.74 287.00 223.00 Z"/>
</g>
<g fill="#0FE598" fill-opacity="1.00" stroke="None"><path d="
M 277.00 255.00 
C 274.00 255.00 271.00 255.00 268.00 255.00
C 268.00 260.33 268.00 265.67 268.00 271.00
C 258.40 266.07 244.70 276.49 250.08 286.92 C 254.45 299.54 267.53 292.13 277.00 294.00
C 277.00 281.00 277.00 268.00 277.00 255.00 Z"/>
</g>
<g fill="#10E79A" fill-opacity="1.00" stroke="None"><path d="
M 195.00 266.00 
C 203.88 255.97 184.50 252.99 178.75 258.75 C 170.21 264.63 175.22 276.02 183.92 278.08 C 197.43 284.30 181.40 290.46 175.00 283.00
C 168.19 289.16 176.69 294.65 183.00 295.00 C 200.74 299.39 205.15 272.32 187.23 270.77 C 177.41 266.27 190.29 260.95 195.00 266.00 Z"/>
</g>
<g fill="#13DD95" fill-opacity="1.00" stroke="None"><path d="
M 288.00 256.00 
C 282.20 254.30 277.80 263.67 284.00 266.00 C 290.95 268.12 293.24 259.41 288.00 256.00 Z"/>
</g>
<g fill="#87F8D0" fill-opacity="0.47" stroke="None"><path d="
M 247.00 429.00 
C 191.21 372.38 134.67 315.83 78.00 260.00
C 133.79 316.62 190.33 373.16 247.00 429.00 Z"/>
</g>
<g fill="#12E89B" fill-opacity="1.00" stroke="None"><path d="
M 213.00 262.00 
C 210.33 262.00 207.67 262.00 205.00 262.00
C 205.00 265.00 205.00 268.00 205.00 271.00
C 200.92 270.02 202.12 274.54 202.00 277.00
C 209.22 278.19 200.92 291.19 208.93 294.07 C 216.15 300.03 222.70 286.40 213.00 287.00
C 213.00 283.67 213.00 280.33 213.00 277.00
C 217.64 278.33 218.84 274.93 218.00 271.00
C 211.46 272.93 213.05 266.12 213.00 262.00 Z"/>
</g>
<g fill="#D0FFFF" fill-opacity="0.01" stroke="None"><path d="
M 355.00 348.00 
C 381.95 321.88 408.83 295.00 435.00 268.00
C 408.05 294.12 381.17 321.00 355.00 348.00 Z"/>
</g>
<g fill="#10E79B" fill-opacity="1.00" stroke="None"><path d="
M 312.00 270.00 
C 294.96 264.54 286.11 291.51 304.33 294.67 C 321.06 299.58 328.57 275.11 312.00 270.00 Z"/>
</g>
<g fill="#11E499" fill-opacity="1.00" stroke="None"><path d="
M 343.00 271.00 
C 337.13 269.51 329.65 268.97 325.78 274.78 C 322.25 281.22 331.34 284.19 335.00 287.00
C 332.61 289.74 328.89 285.94 326.00 286.00
C 319.61 295.07 335.57 297.38 340.75 292.75 C 348.93 286.24 339.14 280.17 334.00 277.00
C 337.48 275.37 343.97 278.23 343.00 271.00 Z"/>
</g>
<g fill="#11E99B" fill-opacity="1.00" stroke="None"><path d="
M 229.00 271.00 
C 226.33 271.00 223.67 271.00 221.00 271.00
C 222.10 278.25 217.84 289.40 225.78 293.22 C 232.04 296.29 240.99 295.51 245.07 289.07 C 246.05 282.44 249.73 267.35 238.00 271.00
C 237.04 276.43 241.02 287.51 233.03 287.97 C 225.75 286.40 230.23 276.36 229.00 271.00 Z"/>
</g>
<g fill="#10EB9D" fill-opacity="1.00" stroke="None"><path d="
M 290.00 271.00 
C 287.33 271.00 284.67 271.00 282.00 271.00
C 283.99 278.96 276.25 297.20 290.00 294.00
C 290.00 286.33 290.00 278.67 290.00 271.00 Z"/>
</g>
<g fill="#099563" fill-opacity="1.00" stroke="None"><path d="
M 266.00 277.00 
C 259.84 274.87 254.59 283.85 260.78 287.22 C 266.59 290.64 270.86 280.52 266.00 277.00 Z"/>
</g>
<g fill="#089763" fill-opacity="1.00" stroke="None"><path d="
M 310.00 277.00 
C 303.38 274.50 298.80 285.32 305.78 287.22 C 312.05 290.59 315.76 280.14 310.00 277.00 Z"/>
</g>
<g fill="#FFFFFF" fill-opacity="0.00" stroke="None"><path d="
M 277.00 426.00 
C 303.29 400.55 329.50 374.33 355.00 348.00
C 328.71 373.45 302.50 399.67 277.00 426.00 Z"/>
</g>
</svg>